<svg version="1.2" xmlns="http://www.w3.org/2000/svg" viewBox="0 0 427 107" width="427" height="107"><style>.a{fill:#ff6100}</style><path class="a" d="m35.8 2.7v66.4h15.1l11.5-11.1c0.1-0.1 0.2-0.3 0.2-0.8v-43.3q0-0.3-0.2-0.5l-11.5-11h-15.1zm21.4 54l-7.5 7.2h-8.6v-14.8h11.9v-5h-11.9v-15.3h11.9v-5h-11.9v-16.3h8.6l7.6 7.3c0 0 0 41.9-0.1 41.9z"/><path class="a" d="m31.8 2.4h-14.7l-11.2 11q-0.2 0.2-0.2 0.5v43.3c0 0.5 0 0.7 0.2 0.8l11.2 11.1h14.7zm-20.9 12.4l7.4-7.3h8.3v16.3h-11.6v5h11.6v15.4h-11.6v4.9h11.6v14.8h-8.3l-7.4-7.2v-41.9z"/><path class="a" d="m103.9 6.6q-3.8-4.2-11.6-4.2h-8.8l-6.5 6.6v60.1h10.4v-25.1h4.9q7.8 0 11.6-4.2 3.9-4.2 3.9-12.3v-8.7q0-8.1-3.9-12.2zm-6.5 21.6q0 3.6-1.3 5-1.4 1.3-3.8 1.3h-4.9v-22.6h4.9q2.4 0 3.8 1.3 1.3 1.4 1.3 5z"/><path class="a" d="m133.7 2.4h-15.3l-10.6 66.7h9.6l1.8-12.1h12.8l1.8 12.1h10.6l-10.7-66.7zm-13.2 45.5l5-33.7 5.1 33.7z"/><path class="a" d="m171.6 2.4v39.9l-10.8-39.9h-13.2v66.7h9.5v-48.3l13.1 48.3h10.8v-66.7c0 0-9.4 0-9.4 0z"/><path class="a" d="m214.2 6q-4-4.3-11.6-4.3-7.6 0-11.7 4.3-4 4.4-4 12.4v34.6q0 8.1 4 12.4 4.1 4.3 11.7 4.3 7.6 0 11.6-4.3 4.1-4.3 4.1-12.4v-34.6q0-8-4.1-12.4zm-6.3 47.7q0 3.6-1.4 5.1-1.5 1.4-3.9 1.4-2.4 0-3.9-1.4-1.5-1.5-1.4-5.1v-35.9q-0.1-3.6 1.4-5.1 1.5-1.5 3.9-1.5 2.4 0 3.9 1.5 1.4 1.5 1.4 5.1z"/><path class="a" d="m254.5 38.8q-1.8-3.6-6-5.3 3.5-1.6 5.1-4.9 1.6-3.4 1.6-8.5v-2.4q0-7.7-3.7-11.5-3.6-3.8-11.7-3.8h-9.1l-6.5 6.6v60.1h16.3q7.8 0 11.7-4.1 4-4 4-11.8v-5.4q0-5.3-1.8-9zm-19.9-26.9h5q2.7 0 4 1.6 1.3 1.6 1.3 5.2v3.8q0 4-1.7 5.5-1.6 1.5-4.5 1.5h-4.1c0 0 0-17.6 0-17.6zm11.3 41.1q0 3.7-1.3 5.1-1.4 1.4-4.1 1.4h-5.9v-20.5h4.6q3.6 0 5.2 1.8 1.5 1.7 1.5 6.3v5.9z"/><path class="a" d="m261.4 2.4l0.1 66.7h10.4v-66.7z"/><path class="a" d="m301.8 2.4h-15.3l-10.7 66.7h9.6l1.8-12.1h12.9l1.8 12.1h10.6zm-13.3 45.5l5.1-33.7 5 33.7z"/><path class="a" d="m385.7 27.2v-8.8q0-8-3.9-12.4-3.9-4.3-11.5-4.3-7.6 0-11.4 4.3-3.9 4.4-3.9 12.4v34.6q0 8.1 3.9 12.4 3.8 4.3 11.4 4.3 7.6 0 11.5-4.3 3.9-4.3 3.9-12.4v-11.6h-9.7v12.3q0 3.6-1.5 5-1.4 1.4-3.9 1.4-2.4 0-3.9-1.4-1.4-1.4-1.4-5v-35.9q0-3.6 1.4-5.1 1.5-1.5 3.9-1.5 2.4 0 3.9 1.5 1.5 1.5 1.5 5.1v9.4z"/><path class="a" d="m418.2 6q-4.1-4.3-11.9-4.3-7.8 0-11.9 4.3-4.1 4.4-4.1 12.4v34.6q0 8.1 4.1 12.4 4.2 4.3 11.9 4.3 7.8 0 11.9-4.3 4.1-4.3 4.1-12.4v-34.6q0-8-4.1-12.4zm-6.4 47.7q0 3.6-1.5 5.1-1.5 1.4-4 1.4-2.5 0-4-1.4-1.4-1.5-1.4-5.1v-35.9q0-3.6 1.4-5.1 1.5-1.5 4-1.5 2.5 0 4 1.5 1.5 1.5 1.5 5.1z"/><path class="a" d="m339.9 2.4v39.9l-10.6-39.9h-12.9v66.7h9.3v-48.3l12.8 48.3h10.6v-66.7z"/><path class="a" d="m77.1 104.9l6.3-17.9h4l6.4 17.9h-3.5l-3.2-9.4q-0.4-1.4-0.9-3.2-0.6-1.8-1.2-4.1h0.7q-0.6 2.3-1.1 4.1-0.5 1.8-0.9 3.2l-3.1 9.4h-3.5zm3.6-4.4v-2.6h9.4v2.6z"/><path class="a" d="m104.3 105.1q-2.4 0-4.3-1.1-1.9-1.1-2.9-3.2-1.1-2-1.1-4.9 0-2.8 1.1-4.9 1.1-2.1 2.9-3.2 1.9-1.1 4.2-1.1 1.5 0 2.8 0.4 1.3 0.4 2.3 1.3 1 0.8 1.7 1.9 0.6 1.2 0.8 2.7h-3.2q-0.2-0.9-0.5-1.5-0.4-0.6-1-1-0.6-0.5-1.3-0.7-0.7-0.2-1.5-0.2-1.5 0-2.6 0.7-1.2 0.8-1.8 2.2-0.7 1.4-0.7 3.4 0 2 0.7 3.5 0.6 1.4 1.8 2.1 1.1 0.8 2.6 0.8 0.8 0 1.5-0.3 0.7-0.2 1.3-0.6 0.6-0.5 1-1.1 0.3-0.6 0.5-1.4h3.2q-0.2 1.3-0.8 2.4-0.6 1.2-1.6 2-1 0.9-2.3 1.4-1.3 0.4-2.8 0.4z"/><path class="a" d="m114.3 104.9l6.3-17.9h4l6.4 17.9h-3.5l-3.2-9.4q-0.4-1.4-0.9-3.2-0.6-1.8-1.2-4.1h0.7q-0.6 2.3-1.1 4.1-0.5 1.8-0.9 3.2l-3.1 9.4h-3.5zm3.7-4.4v-2.6h9.3v2.6z"/><path class="a" d="m137.9 87v17.9h-3.2v-17.9zm2.9 17.9h-4.5v-2.8h4.3q1.9 0 3.2-0.7 1.2-0.7 1.9-2.1 0.6-1.4 0.6-3.4 0-2.1-0.6-3.4-0.7-1.4-1.9-2.1-1.2-0.7-3.1-0.7h-4.5v-2.7h4.7q2.7 0 4.6 1 1.9 1.1 2.9 3.1 1.1 2 1.1 4.8 0 2.8-1.1 4.8-1 2-2.9 3.1-2 1.1-4.7 1.1z"/><path class="a" d="m153.9 104.9v-17.9h11.8v2.7h-8.6v4.8h7.9v2.7h-7.9v5h8.6v2.7h-11.9z"/><path class="a" d="m170.2 104.9v-17.9h4.8l3.4 9.2q0.2 0.5 0.4 1.3 0.2 0.8 0.4 1.7 0.3 0.9 0.5 1.8 0.2 0.9 0.3 1.5h-0.6q0.1-0.6 0.3-1.5 0.2-0.8 0.5-1.7 0.2-0.9 0.4-1.7 0.3-0.8 0.4-1.4l3.4-9.2h4.8v17.9h-3.2v-9.1q0-0.6 0-1.4 0-0.8 0.1-1.7 0-0.9 0-1.9 0-0.9 0-1.8h0.3q-0.3 1-0.5 1.9-0.3 1-0.6 1.9-0.3 1-0.5 1.7-0.3 0.8-0.4 1.3l-3.4 9.1h-2.7l-3.3-9.1q-0.2-0.5-0.5-1.3-0.2-0.7-0.5-1.6-0.3-1-0.6-1.9-0.2-1-0.5-2h0.3q0 0.8 0 1.7 0.1 1 0.1 1.9 0 0.9 0 1.8 0 0.8 0 1.4v9h-3.1z"/><path class="a" d="m197.4 87v17.9h-3.2v-17.9z"/><path class="a" d="m201.1 104.9l6.2-17.9h4.1l6.4 17.9h-3.5l-3.2-9.4q-0.5-1.4-1-3.2-0.5-1.8-1.1-4.1h0.7q-0.6 2.3-1.1 4.1-0.5 1.8-1 3.2l-3.1 9.4h-3.5zm3.7-4.4v-2.6h9.4v2.6z"/></svg>