<svg width="120" height="120" viewBox="0 0 120 120" fill="none" xmlns="http://www.w3.org/2000/svg">
  <rect width="120" height="120" rx="8" fill="#f15927"/>
  <g transform="translate(20, 20)">
    <!-- First B -->
    <path d="M0 0 L0 80 L35 80 C45 80 50 75 50 65 C50 55 45 50 35 50 L35 50 C42 50 47 45 47 35 C47 25 42 20 32 20 L0 20 L0 0 Z M15 15 L28 15 C32 15 35 18 35 22 C35 26 32 29 28 29 L15 29 L15 15 Z M15 44 L30 44 C34 44 37 47 37 51 C37 55 34 58 30 58 L15 58 L15 44 Z" fill="white"/>
    
    <!-- Second B -->
    <path d="M50 0 L50 80 L85 80 C95 80 100 75 100 65 C100 55 95 50 85 50 L85 50 C92 50 97 45 97 35 C97 25 92 20 82 20 L50 20 L50 0 Z M65 15 L78 15 C82 15 85 18 85 22 C85 26 82 29 78 29 L65 29 L65 15 Z M65 44 L80 44 C84 44 87 47 87 51 C87 55 84 58 80 58 L65 58 L65 44 Z" fill="white"/>
  </g>
</svg>